<?xml version="1.0" encoding="UTF-8"?>
<svg version="1.1" xmlns="http://www.w3.org/2000/svg" width="787" height="787">
<path d="M0 0 C0 17.16 0 34.32 0 52 C-5.61 53.98 -11.22 55.96 -17 58 C-20.70491056 59.69984175 -24.24521011 61.38176674 -27.8125 63.3125 C-28.69848877 63.7854248 -29.58447754 64.25834961 -30.49731445 64.74560547 C-41.53413876 70.76164977 -50.87662615 78.37613454 -60 87 C-60.81082031 87.74636719 -61.62164062 88.49273437 -62.45703125 89.26171875 C-86.53380235 112.2010046 -101.78532271 146.9285299 -103.12646484 180.13085938 C-104.03992901 220.92837994 -94.50324759 257.86944597 -67 289 C-66.57605957 289.48952148 -66.15211914 289.97904297 -65.71533203 290.48339844 C-59.3958788 297.76566205 -52.70809806 304.16991245 -45 310 C-43.96488281 310.80050781 -42.92976563 311.60101562 -41.86328125 312.42578125 C-10.50869863 336.1361796 28.8895973 345.3046342 67.75195312 340.23022461 C84.45754501 337.59049435 100.87086861 332.56456569 116 325 C115.40369265 328.69217064 114.36910491 331.60765048 112.6640625 334.9296875 C111.94114014 336.35341675 111.94114014 336.35341675 111.20361328 337.8059082 C110.6826709 338.8187085 110.16172852 339.83150879 109.625 340.875 C104.88319854 350.20939538 100.27720811 359.59310053 95.83056641 369.07177734 C87.67742377 386.32257623 87.67742377 386.32257623 85 389 C32.91423169 398.45670687 -23.7416143 387.42174326 -67.5 357.4375 C-76.81191778 350.88975628 -85.3939399 343.65749414 -93.75 335.9375 C-94.36431885 335.37184326 -94.9786377 334.80618652 -95.61157227 334.22338867 C-126.42027159 305.35918986 -146.10495413 264.30451863 -153 223 C-153.22429687 221.72511719 -153.44859375 220.45023438 -153.6796875 219.13671875 C-159.79375446 177.46893362 -151.82658547 134.94600456 -132 98 C-131.39671875 96.84242188 -130.7934375 95.68484375 -130.171875 94.4921875 C-122.21541353 79.81619345 -111.55798388 66.97254571 -100 55 C-99.08175662 54.01848602 -98.16379164 53.03671152 -97.24609375 52.0546875 C-75.0871506 28.72466576 -33.57392186 0 0 0 Z " fill="#D67E78" transform="translate(326,305)"/>
<path d="M0 0 C16.17 0 32.34 0 49 0 C48.9792189 3.75905228 48.95843781 7.51810455 48.93702698 11.3910675 C48.75332893 45.87979341 48.64421162 80.3681116 48.61620233 114.857327 C48.61246211 119.37957604 48.6080687 123.90182423 48.60327148 128.42407227 C48.60185542 129.77449264 48.60185542 129.77449264 48.60041075 131.15219422 C48.58357723 145.72064538 48.51385652 160.28838615 48.42451347 174.85655246 C48.33398654 189.8101884 48.30047278 204.76317254 48.31963962 219.7170741 C48.3296732 228.94156078 48.2954931 238.16369105 48.20434844 247.38774201 C48.1460705 253.71719529 48.14328563 260.04517543 48.18364913 266.3747618 C48.20530389 270.02521869 48.20296476 273.67139137 48.13454247 277.32136536 C47.27403734 291.31061569 47.27403734 291.31061569 51.45292163 304.19945884 C54.85895021 307.72420415 58.68406538 309.94960467 63.09327781 312.00825918 C66.26882129 313.65995029 68.7903661 315.92320511 71.5 318.25 C72.09022949 318.74943115 72.68045898 319.2488623 73.28857422 319.76342773 C84.69571796 329.87130221 95.06632095 340.63908721 104 353 C104.41024414 353.56058105 104.82048828 354.12116211 105.24316406 354.69873047 C119.07143962 373.7988308 136 401.66551258 136 426 C118.51 426 101.02 426 83 426 C81.02 420.72 79.04 415.44 77 410 C70.5511325 395.26154495 62.2633669 381.95145298 51.1640625 370.28515625 C49 368 49 368 46.5625 364.875 C34.20641958 351.0120805 16.50789236 341.09821135 0 333 C-1.70273591 331.29726409 -1.12281878 329.15989298 -1.12997866 326.88839316 C-1.12716749 326.14866397 -1.12435632 325.40893478 -1.12145996 324.64678955 C-1.12239639 323.86485804 -1.12333282 323.08292653 -1.12429762 322.27730012 C-1.12614645 319.62657507 -1.12069166 316.97591472 -1.11523438 314.32519531 C-1.11482586 312.42268122 -1.11481047 310.520167 -1.11515808 308.61765289 C-1.11462463 303.37862828 -1.10736406 298.1396315 -1.09871864 292.90061474 C-1.09373218 289.56621209 -1.09059793 286.23181294 -1.08811951 282.89740753 C-1.0480919 229.08743103 -0.80701579 175.27800973 -0.55461884 121.46868658 C-0.51115071 112.18843868 -0.46881893 102.90818623 -0.42724609 93.62792969 C-0.4242591 92.96121906 -0.4212721 92.29450844 -0.41819459 91.60759446 C-0.40319514 88.25835344 -0.38821418 84.90911234 -0.37324238 81.5598712 C-0.25164871 54.37323402 -0.12661853 27.18661427 0 0 Z " fill="#D67D77" transform="translate(432,27)"/>
<path d="M0 0 C3.27188674 21.82540918 -3.85028473 36.85776078 -13.42245483 55.80862427 C-17.28922507 63.47882292 -20.76673293 71.29760653 -24.19775391 79.17022705 C-29.83287272 92.07894428 -35.69876197 104.86897674 -41.70068359 117.61035156 C-46.38179745 127.57307738 -50.86379847 137.619154 -55.3125 147.6875 C-59.62538718 157.44687769 -63.95145329 167.18543345 -68.57958984 176.80053711 C-72.14475286 184.23250536 -75.53746579 191.74157749 -78.9375 199.25 C-84.57261416 211.69117281 -90.26571952 224.10422695 -96 236.5 C-102.55294796 250.66672368 -109.05123578 264.85710721 -115.49414062 279.07421875 C-115.79255356 279.73254196 -116.09096649 280.39086517 -116.39842224 281.06913757 C-117.19786879 282.83336703 -117.99654642 284.59794487 -118.79516602 286.36254883 C-119.50637599 287.91942853 -120.2345336 289.4690672 -121 291 C-140.8 291 -160.6 291 -181 291 C-180.11732952 286.58664762 -179.08969575 283.80946768 -177.10766602 279.85888672 C-176.81146866 279.26444763 -176.5152713 278.67000854 -176.21009827 278.05755615 C-175.23047889 276.09531456 -174.24232977 274.13750708 -173.25390625 272.1796875 C-172.56137498 270.7976897 -171.86932109 269.41545259 -171.17771912 268.0329895 C-169.72278889 265.12773264 -168.26396022 262.22448039 -166.80200195 259.32275391 C-164.95811516 255.66287088 -163.12088907 251.99970166 -161.28634739 248.33512688 C-159.50718911 244.78206403 -157.72434597 241.23085385 -155.94140625 237.6796875 C-155.61523378 237.02922329 -155.28906132 236.37875908 -154.95300484 235.70858383 C-151.64135969 229.10988556 -148.29514863 222.53441138 -144.82513142 216.0174017 C-136.53015292 200.41893763 -128.7214311 184.57066769 -120.83173323 168.76486039 C-118.61776738 164.33060358 -116.40147915 159.89750776 -114.18545532 155.46427917 C-110.00509177 147.1004654 -105.82676535 138.73563573 -101.64920199 130.37042302 C-95.99288712 119.04443888 -90.33336147 107.72005938 -84.67403221 96.39558125 C-75.78009336 78.59834956 -66.89038978 60.79900587 -58 43 C-107.83 43 -157.66 43 -209 43 C-209.495 22.21 -209.495 22.21 -210 1 C-207.98341416 -1.01658584 -203.84569842 -0.15918193 -201.07937622 -0.16494751 C-199.81945195 -0.17341282 -199.81945195 -0.17341282 -198.53407466 -0.18204916 C-195.6973643 -0.19985952 -192.86067127 -0.21049596 -190.02392578 -0.22119141 C-187.99911266 -0.23239969 -185.97430184 -0.24403159 -183.94949341 -0.25605774 C-178.43301495 -0.28747407 -172.91652407 -0.31254918 -167.40000772 -0.3362546 C-161.6384729 -0.36178421 -155.87696314 -0.39213568 -150.115448 -0.42172241 C-140.43586661 -0.47061287 -130.75627227 -0.51528094 -121.07666016 -0.55761719 C-109.87440087 -0.60667781 -98.67219519 -0.66297706 -87.4699899 -0.72303832 C-77.86747108 -0.77432966 -68.26493871 -0.82167939 -58.66238391 -0.86572587 C-52.92057085 -0.89206995 -47.17877343 -0.9198059 -41.43698502 -0.9510994 C-36.03791236 -0.98030821 -30.63883986 -1.00458209 -25.23972702 -1.02499962 C-23.25430747 -1.03332359 -21.26889437 -1.04338772 -19.28349304 -1.05528831 C-16.5805207 -1.07121109 -13.87759651 -1.08092886 -11.17459106 -1.08901978 C-10.38247636 -1.09514145 -9.59036165 -1.10126312 -8.77424347 -1.10757029 C-5.57627234 -1.1114438 -3.05746089 -1.01915363 0 0 Z " fill="#D67D77" transform="translate(583,477)"/>
<path d="M0 0 C15.84 0 31.68 0 48 0 C48.33 88.77 48.66 177.54 49 269 C53.95 270.32 58.9 271.64 64 273 C88.7953617 281.7816906 107.65141378 300.82041793 121 323 C121.37946777 323.61955566 121.75893555 324.23911133 122.14990234 324.87744141 C125 329.6476312 125 329.6476312 125 333 C117.21977759 333.20955566 109.44022927 333.36895271 101.6578846 333.46630955 C98.04303675 333.51306555 94.43013438 333.57635129 90.81640625 333.67895508 C87.3213717 333.77755512 83.82819392 333.83071956 80.33187485 333.85389519 C78.36508562 333.87834956 76.39903285 333.94848395 74.43338013 334.01966858 C67.4670321 334.02354858 63.58693964 333.34435359 58.32885742 328.58911133 C56.88377484 327.06141966 55.44055306 325.53196357 54 324 C42.8696249 315.97380089 27.61751422 312.1540898 14.06396484 314.30761719 C9.68301257 315.08996676 5.33967727 316.01610556 1 317 C0.05524432 313.80726874 -0.12437733 310.94333512 -0.12304783 307.61957169 C-0.12503888 306.52130468 -0.12702993 305.42303767 -0.12908131 304.29148984 C-0.12616847 303.08527439 -0.12325563 301.87905894 -0.12025452 300.6362915 C-0.12110894 299.35472192 -0.12196337 298.07315233 -0.12284368 296.7527473 C-0.12508255 293.19308083 -0.12107564 289.63344437 -0.11606562 286.07378173 C-0.11175261 282.23605204 -0.11320815 278.39832408 -0.1139679 274.56059265 C-0.11449259 267.91064299 -0.11135147 261.26070312 -0.10573006 254.61075592 C-0.09760769 244.99601422 -0.09499908 235.38127727 -0.09374207 225.76653251 C-0.09155271 210.16775727 -0.08489576 194.56898725 -0.07543945 178.97021484 C-0.06626234 163.81624376 -0.05918297 148.66227409 -0.05493164 133.50830078 C-0.05466892 132.57442206 -0.05440619 131.64054334 -0.05413551 130.67836526 C-0.05283048 125.9934335 -0.05156677 121.30850174 -0.05032361 116.62356997 C-0.03995461 77.74904281 -0.02206449 38.87452215 0 0 Z " fill="#D67E78" transform="translate(351,120)"/>
<path d="M0 0 C0.34219443 7.18846795 0.63164744 14.37714059 0.85746098 21.570261 C0.96396588 24.91250517 1.09233952 28.25043624 1.25170898 31.59082031 C2.52999422 58.82695353 2.52999422 58.82695353 -8 71 C-15.38010518 85.50823689 -16.56038128 103.98213747 -12.375 119.625 C-6.45388755 136.93445415 3.53197976 151.0972177 20.1171875 159.59765625 C35.86132548 166.46818974 51.83997134 166.89006586 68 161 C79.06240607 156.36371858 79.06240607 156.36371858 87 148 C107.46 148 127.92 148 149 148 C141.05414036 171.83757891 121.20733122 191.53451542 99.03344727 202.71826172 C69.58821078 216.86033272 37.56070619 219.10731888 6.59985352 208.53564453 C-22.48252726 198.00107171 -44.82633681 175.54271324 -58.13623047 147.90722656 C-60.61370354 142.43689879 -62.3868153 136.7805785 -64 131 C-64.47953125 129.38738281 -64.47953125 129.38738281 -64.96875 127.7421875 C-71.9915752 99.71591285 -66.59219648 69.83080914 -52.2409668 45.13891602 C-43.05636195 29.96612962 -20.23599552 0 0 0 Z " fill="#D67E78" transform="translate(326,395)"/>
<path d="M0 0 C0.495 1.485 0.495 1.485 1 3 C0.67 3.66 0.34 4.32 0 5 C-19.8 5 -39.6 5 -60 5 C-60 4.01 -60 3.02 -60 2 C-40.53 2 -21.06 2 -1 2 C-0.67 1.34 -0.34 0.68 0 0 Z " fill="#DE9893" transform="translate(462,763)"/>
<path d="M0 0 C7.26 0 14.52 0 22 0 C21.67 0.66 21.34 1.32 21 2 C14.35571695 3.17882441 7.6460801 3.36482002 1 2 C0.67 1.34 0.34 0.68 0 0 Z " fill="#D3756E" transform="translate(387,517)"/>
<path d="M0 0 C4.2742558 1.5830577 6.26531794 4.50568404 9 8 C6 8 6 8 4.39453125 6.7578125 C3.87246094 6.21898437 3.35039062 5.68015625 2.8125 5.125 C2.28269531 4.59132813 1.75289062 4.05765625 1.20703125 3.5078125 C0 2 0 2 0 0 Z " fill="#DB8F89" transform="translate(226,633)"/>
<path d="M0 0 C-1.49097658 3.7952131 -3.75700849 5.61042731 -7 8 C-6.44414399 4.1090079 -4.34122117 0 0 0 Z " fill="#DB8F8A" transform="translate(268,388)"/>
<path d="M0 0 C0.33 0.99 0.66 1.98 1 3 C0.67 3.66 0.34 4.32 0 5 C-2.64 5 -5.28 5 -8 5 C-5.59078295 2.59078295 -3.05665491 1.46187844 0 0 Z " fill="#D98C86" transform="translate(441,630)"/>
</svg>
